<mxfile host="app.diagrams.net" agent="Mozilla/5.0 (Windows NT 10.0; Win64; x64) AppleWebKit/537.36 (KHTML, like Gecko) Chrome/132.0.0.0 Safari/537.36" version="26.0.12">
  <diagram name="Page-1" id="HhWs0j3t2sD9-UhU-f3X">
    <mxGraphModel dx="5444" dy="652" grid="1" gridSize="10" guides="1" tooltips="1" connect="1" arrows="1" fold="1" page="1" pageScale="1" pageWidth="850" pageHeight="1100" math="0" shadow="0">
      <root>
        <mxCell id="0" />
        <mxCell id="1" parent="0" />
        <mxCell id="THCGzzuzk-K5U6UD1SbX-179" style="edgeStyle=orthogonalEdgeStyle;rounded=0;orthogonalLoop=1;jettySize=auto;html=1;exitX=0.5;exitY=1;exitDx=0;exitDy=0;" parent="1" source="THCGzzuzk-K5U6UD1SbX-178" target="THCGzzuzk-K5U6UD1SbX-173" edge="1">
          <mxGeometry relative="1" as="geometry" />
        </mxCell>
        <mxCell id="THCGzzuzk-K5U6UD1SbX-180" style="edgeStyle=orthogonalEdgeStyle;rounded=0;orthogonalLoop=1;jettySize=auto;html=1;exitX=0.5;exitY=1;exitDx=0;exitDy=0;entryX=0.5;entryY=0;entryDx=0;entryDy=0;" parent="1" source="THCGzzuzk-K5U6UD1SbX-178" target="THCGzzuzk-K5U6UD1SbX-174" edge="1">
          <mxGeometry relative="1" as="geometry" />
        </mxCell>
        <mxCell id="THCGzzuzk-K5U6UD1SbX-178" value="" style="rounded=1;whiteSpace=wrap;html=1;" parent="1" vertex="1">
          <mxGeometry x="-2925" y="4500" width="665" height="190" as="geometry" />
        </mxCell>
        <mxCell id="THCGzzuzk-K5U6UD1SbX-157" value="" style="rounded=1;whiteSpace=wrap;html=1;" parent="1" vertex="1">
          <mxGeometry x="-3900" y="3200" width="350" height="570" as="geometry" />
        </mxCell>
        <mxCell id="THCGzzuzk-K5U6UD1SbX-1" value="&lt;font style=&quot;font-size: 16px;&quot;&gt;&lt;b&gt;os-qed-coulomb:&lt;/b&gt;&lt;/font&gt;&lt;div&gt;axis_prim_theta (table)&lt;br&gt;&lt;div&gt;prim_cs (table)&lt;/div&gt;&lt;div&gt;prim_cdf (table)&lt;/div&gt;&lt;div&gt;prim_cs (SR)&lt;/div&gt;&lt;/div&gt;&lt;div&gt;prim_proba (SR)&lt;/div&gt;&lt;div&gt;prim_cdf (SR)&lt;/div&gt;&lt;div&gt;prim_spec (SR)&lt;/div&gt;" style="rounded=0;whiteSpace=wrap;html=1;fillColor=#80FF00;" parent="1" vertex="1">
          <mxGeometry x="-3300" y="890" width="150" height="130" as="geometry" />
        </mxCell>
        <mxCell id="THCGzzuzk-K5U6UD1SbX-2" value="" style="endArrow=classic;html=1;rounded=0;exitX=1;exitY=0.5;exitDx=0;exitDy=0;entryX=0;entryY=0.5;entryDx=0;entryDy=0;" parent="1" source="THCGzzuzk-K5U6UD1SbX-1" target="THCGzzuzk-K5U6UD1SbX-4" edge="1">
          <mxGeometry width="50" height="50" relative="1" as="geometry">
            <mxPoint x="220" y="260" as="sourcePoint" />
            <mxPoint x="520" y="265" as="targetPoint" />
            <Array as="points">
              <mxPoint x="-3080" y="320" />
              <mxPoint x="-720" y="320" />
              <mxPoint x="-230" y="320" />
              <mxPoint x="280" y="320" />
            </Array>
          </mxGeometry>
        </mxCell>
        <mxCell id="THCGzzuzk-K5U6UD1SbX-4" value="&lt;font style=&quot;font-size: 16px;&quot;&gt;&lt;b&gt;os-spec-push-qed&lt;/b&gt;&lt;/font&gt;&lt;div&gt;&lt;font style=&quot;font-size: 16px;&quot;&gt;&lt;b&gt;(Not used in any module)&lt;/b&gt;&lt;/font&gt;&lt;/div&gt;" style="rounded=0;whiteSpace=wrap;html=1;fillColor=#FF3333;" parent="1" vertex="1">
          <mxGeometry x="700" y="650" width="150" height="130" as="geometry" />
        </mxCell>
        <mxCell id="THCGzzuzk-K5U6UD1SbX-5" value="" style="endArrow=classic;html=1;rounded=0;exitX=1;exitY=0.5;exitDx=0;exitDy=0;entryX=0;entryY=0.5;entryDx=0;entryDy=0;" parent="1" source="THCGzzuzk-K5U6UD1SbX-1" target="THCGzzuzk-K5U6UD1SbX-6" edge="1">
          <mxGeometry width="50" height="50" relative="1" as="geometry">
            <mxPoint x="400" y="360" as="sourcePoint" />
            <mxPoint x="520" y="640" as="targetPoint" />
            <Array as="points">
              <mxPoint x="-2670" y="560" />
              <mxPoint x="-720" y="610" />
            </Array>
          </mxGeometry>
        </mxCell>
        <mxCell id="THCGzzuzk-K5U6UD1SbX-6" value="&lt;font style=&quot;font-size: 16px;&quot;&gt;&lt;b&gt;os-photons&lt;/b&gt;&lt;/font&gt;" style="rounded=0;whiteSpace=wrap;html=1;fillColor=#99FFFF;" parent="1" vertex="1">
          <mxGeometry x="-150" y="650" width="150" height="130" as="geometry" />
        </mxCell>
        <mxCell id="THCGzzuzk-K5U6UD1SbX-11" value="&lt;font style=&quot;font-size: 16px;&quot;&gt;&lt;b&gt;os-photons-define&amp;nbsp;&lt;/b&gt;&lt;/font&gt;" style="rounded=0;whiteSpace=wrap;html=1;fillColor=#99FFFF;" parent="1" vertex="1">
          <mxGeometry x="-1520" y="680" width="150" height="130" as="geometry" />
        </mxCell>
        <mxCell id="THCGzzuzk-K5U6UD1SbX-13" value="&lt;font style=&quot;font-size: 16px;&quot;&gt;&lt;b&gt;os-particles-qed&lt;/b&gt;&lt;/font&gt;" style="rounded=0;whiteSpace=wrap;html=1;" parent="1" vertex="1">
          <mxGeometry x="310" y="2030" width="150" height="130" as="geometry" />
        </mxCell>
        <mxCell id="THCGzzuzk-K5U6UD1SbX-19" value="" style="endArrow=classic;html=1;rounded=0;exitX=1;exitY=0.5;exitDx=0;exitDy=0;entryX=0;entryY=0.5;entryDx=0;entryDy=0;" parent="1" source="THCGzzuzk-K5U6UD1SbX-17" target="THCGzzuzk-K5U6UD1SbX-32" edge="1">
          <mxGeometry width="50" height="50" relative="1" as="geometry">
            <mxPoint x="-250" y="1130" as="sourcePoint" />
            <mxPoint x="-630" y="825" as="targetPoint" />
            <Array as="points" />
          </mxGeometry>
        </mxCell>
        <mxCell id="THCGzzuzk-K5U6UD1SbX-21" value="" style="endArrow=classic;html=1;rounded=0;exitX=1;exitY=0.5;exitDx=0;exitDy=0;entryX=0;entryY=0.5;entryDx=0;entryDy=0;" parent="1" source="THCGzzuzk-K5U6UD1SbX-10" target="THCGzzuzk-K5U6UD1SbX-14" edge="1">
          <mxGeometry width="50" height="50" relative="1" as="geometry">
            <mxPoint x="-250" y="1130" as="sourcePoint" />
            <mxPoint x="-200" y="1080" as="targetPoint" />
          </mxGeometry>
        </mxCell>
        <mxCell id="THCGzzuzk-K5U6UD1SbX-22" value="" style="endArrow=classic;html=1;rounded=0;exitX=1;exitY=0.5;exitDx=0;exitDy=0;entryX=0;entryY=0.5;entryDx=0;entryDy=0;" parent="1" source="THCGzzuzk-K5U6UD1SbX-10" target="THCGzzuzk-K5U6UD1SbX-11" edge="1">
          <mxGeometry width="50" height="50" relative="1" as="geometry">
            <mxPoint x="-250" y="1130" as="sourcePoint" />
            <mxPoint x="-200" y="1080" as="targetPoint" />
          </mxGeometry>
        </mxCell>
        <mxCell id="THCGzzuzk-K5U6UD1SbX-23" value="" style="endArrow=classic;html=1;rounded=0;exitX=1;exitY=0.5;exitDx=0;exitDy=0;entryX=0;entryY=0.5;entryDx=0;entryDy=0;" parent="1" source="THCGzzuzk-K5U6UD1SbX-10" target="THCGzzuzk-K5U6UD1SbX-13" edge="1">
          <mxGeometry width="50" height="50" relative="1" as="geometry">
            <mxPoint x="-250" y="1130" as="sourcePoint" />
            <mxPoint x="-200" y="1080" as="targetPoint" />
          </mxGeometry>
        </mxCell>
        <mxCell id="THCGzzuzk-K5U6UD1SbX-27" value="&lt;font style=&quot;font-size: 16px;&quot;&gt;&lt;b&gt;os-simulation-qed&lt;/b&gt;&lt;/font&gt;&lt;div&gt;&lt;font style=&quot;font-size: 16px;&quot;&gt;&lt;b&gt;(Not used in any module)&lt;/b&gt;&lt;b&gt;&lt;br&gt;&lt;/b&gt;&lt;/font&gt;&lt;/div&gt;" style="rounded=0;whiteSpace=wrap;html=1;fillColor=#FF3333;" parent="1" vertex="1">
          <mxGeometry x="690" y="2030" width="150" height="130" as="geometry" />
        </mxCell>
        <mxCell id="THCGzzuzk-K5U6UD1SbX-30" value="&lt;span style=&quot;font-size: 16px;&quot;&gt;&lt;b&gt;os-species-diagnostics-qed&lt;/b&gt;&lt;/span&gt;" style="rounded=0;whiteSpace=wrap;html=1;" parent="1" vertex="1">
          <mxGeometry x="90" y="920" width="240" height="130" as="geometry" />
        </mxCell>
        <mxCell id="THCGzzuzk-K5U6UD1SbX-35" value="&lt;font style=&quot;font-size: 16px;&quot;&gt;&lt;b&gt;os-qed-collide&lt;/b&gt;&lt;/font&gt;" style="rounded=0;whiteSpace=wrap;html=1;" parent="1" vertex="1">
          <mxGeometry x="30" y="1430" width="150" height="130" as="geometry" />
        </mxCell>
        <mxCell id="THCGzzuzk-K5U6UD1SbX-44" value="&lt;font style=&quot;font-size: 16px;&quot;&gt;&lt;b&gt;os-qed&lt;/b&gt;&lt;/font&gt;" style="rounded=0;whiteSpace=wrap;html=1;fillColor=#80FF00;" parent="1" vertex="1">
          <mxGeometry x="-3260" y="1100" width="150" height="130" as="geometry" />
        </mxCell>
        <mxCell id="THCGzzuzk-K5U6UD1SbX-52" value="&lt;font style=&quot;font-size: 72px;&quot;&gt;Dont forgett to color&lt;/font&gt;" style="text;html=1;align=center;verticalAlign=middle;resizable=0;points=[];autosize=1;strokeColor=none;fillColor=none;" parent="1" vertex="1">
          <mxGeometry x="-1095" y="2320" width="660" height="100" as="geometry" />
        </mxCell>
        <mxCell id="THCGzzuzk-K5U6UD1SbX-54" value="&lt;font style=&quot;font-size: 16px;&quot;&gt;&lt;b&gt;os-photons-diagnostics&lt;/b&gt;&lt;/font&gt;" style="rounded=0;whiteSpace=wrap;html=1;fillColor=#99FFFF;" parent="1" vertex="1">
          <mxGeometry x="-1040" y="670" width="150" height="130" as="geometry" />
        </mxCell>
        <mxCell id="THCGzzuzk-K5U6UD1SbX-56" value="" style="endArrow=classic;html=1;rounded=0;exitX=1;exitY=0.5;exitDx=0;exitDy=0;entryX=0;entryY=0.5;entryDx=0;entryDy=0;" parent="1" source="THCGzzuzk-K5U6UD1SbX-11" target="THCGzzuzk-K5U6UD1SbX-35" edge="1">
          <mxGeometry width="50" height="50" relative="1" as="geometry">
            <mxPoint x="190" y="1590" as="sourcePoint" />
            <mxPoint x="240" y="1540" as="targetPoint" />
            <Array as="points">
              <mxPoint x="-450" y="1130" />
            </Array>
          </mxGeometry>
        </mxCell>
        <mxCell id="THCGzzuzk-K5U6UD1SbX-57" value="" style="endArrow=classic;html=1;rounded=0;exitX=1;exitY=0.5;exitDx=0;exitDy=0;entryX=0;entryY=0.5;entryDx=0;entryDy=0;" parent="1" source="THCGzzuzk-K5U6UD1SbX-11" target="THCGzzuzk-K5U6UD1SbX-6" edge="1">
          <mxGeometry width="50" height="50" relative="1" as="geometry">
            <mxPoint x="190" y="1590" as="sourcePoint" />
            <mxPoint x="240" y="1540" as="targetPoint" />
            <Array as="points">
              <mxPoint x="-990" y="865" />
              <mxPoint x="-830" y="800" />
            </Array>
          </mxGeometry>
        </mxCell>
        <mxCell id="THCGzzuzk-K5U6UD1SbX-64" value="" style="endArrow=classic;html=1;rounded=0;exitX=1;exitY=0.5;exitDx=0;exitDy=0;entryX=0;entryY=0.5;entryDx=0;entryDy=0;" parent="1" source="THCGzzuzk-K5U6UD1SbX-13" target="THCGzzuzk-K5U6UD1SbX-27" edge="1">
          <mxGeometry width="50" height="50" relative="1" as="geometry">
            <mxPoint x="390" y="1300" as="sourcePoint" />
            <mxPoint x="440" y="1250" as="targetPoint" />
          </mxGeometry>
        </mxCell>
        <mxCell id="THCGzzuzk-K5U6UD1SbX-65" value="&lt;font style=&quot;font-size: 16px;&quot;&gt;&lt;b&gt;os-mergedel&lt;/b&gt;&lt;/font&gt;" style="rounded=0;whiteSpace=wrap;html=1;" parent="1" vertex="1">
          <mxGeometry x="-3260" y="1410" width="150" height="130" as="geometry" />
        </mxCell>
        <mxCell id="THCGzzuzk-K5U6UD1SbX-67" value="" style="endArrow=classic;html=1;rounded=0;exitX=1;exitY=0.5;exitDx=0;exitDy=0;entryX=0;entryY=0.5;entryDx=0;entryDy=0;" parent="1" source="THCGzzuzk-K5U6UD1SbX-65" target="THCGzzuzk-K5U6UD1SbX-32" edge="1">
          <mxGeometry width="50" height="50" relative="1" as="geometry">
            <mxPoint x="60" y="1880" as="sourcePoint" />
            <mxPoint x="110" y="1830" as="targetPoint" />
            <Array as="points" />
          </mxGeometry>
        </mxCell>
        <mxCell id="THCGzzuzk-K5U6UD1SbX-72" value="&lt;font style=&quot;font-size: 16px;&quot;&gt;&lt;b&gt;os-axions-diagnostics&lt;/b&gt;&lt;/font&gt;" style="rounded=0;whiteSpace=wrap;html=1;fillColor=#007FFF;" parent="1" vertex="1">
          <mxGeometry x="-1050" y="1730" width="150" height="130" as="geometry" />
        </mxCell>
        <mxCell id="THCGzzuzk-K5U6UD1SbX-73" value="" style="endArrow=classic;html=1;rounded=0;entryX=0;entryY=0.5;entryDx=0;entryDy=0;exitX=1;exitY=0.5;exitDx=0;exitDy=0;" parent="1" source="THCGzzuzk-K5U6UD1SbX-14" target="THCGzzuzk-K5U6UD1SbX-72" edge="1">
          <mxGeometry width="50" height="50" relative="1" as="geometry">
            <mxPoint x="-680" y="910" as="sourcePoint" />
            <mxPoint x="-630" y="860" as="targetPoint" />
          </mxGeometry>
        </mxCell>
        <mxCell id="THCGzzuzk-K5U6UD1SbX-17" value="&lt;font style=&quot;font-size: 16px;&quot;&gt;&lt;b&gt;os-trident-coul&lt;/b&gt;&lt;/font&gt;" style="rounded=0;whiteSpace=wrap;html=1;fillColor=#FFFF00;" parent="1" vertex="1">
          <mxGeometry x="-2780" y="810" width="150" height="130" as="geometry" />
        </mxCell>
        <mxCell id="THCGzzuzk-K5U6UD1SbX-78" value="" style="endArrow=classic;html=1;rounded=0;exitX=1;exitY=0.5;exitDx=0;exitDy=0;entryX=0;entryY=0.5;entryDx=0;entryDy=0;" parent="1" source="THCGzzuzk-K5U6UD1SbX-44" target="THCGzzuzk-K5U6UD1SbX-4" edge="1">
          <mxGeometry width="50" height="50" relative="1" as="geometry">
            <mxPoint x="-670" y="710" as="sourcePoint" />
            <mxPoint x="-620" y="660" as="targetPoint" />
            <Array as="points">
              <mxPoint x="-3040" y="360" />
              <mxPoint x="-2510" y="360" />
              <mxPoint x="-1630" y="360" />
              <mxPoint x="-480" y="360" />
              <mxPoint x="280" y="360" />
            </Array>
          </mxGeometry>
        </mxCell>
        <mxCell id="THCGzzuzk-K5U6UD1SbX-79" value="" style="endArrow=classic;html=1;rounded=0;exitX=1;exitY=0.5;exitDx=0;exitDy=0;entryX=0;entryY=0.5;entryDx=0;entryDy=0;" parent="1" source="THCGzzuzk-K5U6UD1SbX-32" target="THCGzzuzk-K5U6UD1SbX-10" edge="1">
          <mxGeometry width="50" height="50" relative="1" as="geometry">
            <mxPoint x="-710" y="1190" as="sourcePoint" />
            <mxPoint x="-660" y="1140" as="targetPoint" />
          </mxGeometry>
        </mxCell>
        <mxCell id="THCGzzuzk-K5U6UD1SbX-32" value="&lt;span style=&quot;font-size: 16px;&quot;&gt;&lt;b&gt;os-species-define-qed&lt;/b&gt;&lt;/span&gt;" style="rounded=0;whiteSpace=wrap;html=1;" parent="1" vertex="1">
          <mxGeometry x="-2490" y="1100" width="240" height="130" as="geometry" />
        </mxCell>
        <mxCell id="THCGzzuzk-K5U6UD1SbX-82" value="" style="endArrow=classic;html=1;rounded=0;exitX=1;exitY=0.5;exitDx=0;exitDy=0;entryX=0;entryY=0.5;entryDx=0;entryDy=0;" parent="1" source="THCGzzuzk-K5U6UD1SbX-32" target="THCGzzuzk-K5U6UD1SbX-10" edge="1">
          <mxGeometry width="50" height="50" relative="1" as="geometry">
            <mxPoint x="-300" y="1190" as="sourcePoint" />
            <mxPoint x="-250" y="1140" as="targetPoint" />
          </mxGeometry>
        </mxCell>
        <mxCell id="THCGzzuzk-K5U6UD1SbX-83" value="" style="endArrow=classic;html=1;rounded=0;exitX=1;exitY=0.5;exitDx=0;exitDy=0;entryX=0;entryY=0.5;entryDx=0;entryDy=0;" parent="1" source="THCGzzuzk-K5U6UD1SbX-32" target="THCGzzuzk-K5U6UD1SbX-30" edge="1">
          <mxGeometry width="50" height="50" relative="1" as="geometry">
            <mxPoint x="-490" y="1340" as="sourcePoint" />
            <mxPoint x="-440" y="1290" as="targetPoint" />
            <Array as="points">
              <mxPoint x="-1270" y="980" />
            </Array>
          </mxGeometry>
        </mxCell>
        <mxCell id="THCGzzuzk-K5U6UD1SbX-85" value="" style="endArrow=classic;html=1;rounded=0;exitX=1;exitY=0.5;exitDx=0;exitDy=0;entryX=0;entryY=0.5;entryDx=0;entryDy=0;" parent="1" source="THCGzzuzk-K5U6UD1SbX-65" target="THCGzzuzk-K5U6UD1SbX-13" edge="1">
          <mxGeometry width="50" height="50" relative="1" as="geometry">
            <mxPoint x="-980" y="1420" as="sourcePoint" />
            <mxPoint x="-930" y="1370" as="targetPoint" />
            <Array as="points">
              <mxPoint x="-2670" y="2070" />
            </Array>
          </mxGeometry>
        </mxCell>
        <mxCell id="THCGzzuzk-K5U6UD1SbX-86" value="" style="curved=1;endArrow=classic;html=1;rounded=0;exitX=1;exitY=0.5;exitDx=0;exitDy=0;entryX=0;entryY=0.5;entryDx=0;entryDy=0;" parent="1" source="THCGzzuzk-K5U6UD1SbX-32" target="THCGzzuzk-K5U6UD1SbX-14" edge="1">
          <mxGeometry width="50" height="50" relative="1" as="geometry">
            <mxPoint x="-1300" y="885" as="sourcePoint" />
            <mxPoint x="-620" y="1585" as="targetPoint" />
            <Array as="points" />
          </mxGeometry>
        </mxCell>
        <mxCell id="THCGzzuzk-K5U6UD1SbX-14" value="&lt;font style=&quot;font-size: 16px;&quot;&gt;&lt;b&gt;os-axions-define&amp;nbsp;&lt;/b&gt;&lt;/font&gt;" style="rounded=0;whiteSpace=wrap;html=1;fillColor=#007FFF;" parent="1" vertex="1">
          <mxGeometry x="-1530" y="1730" width="150" height="130" as="geometry" />
        </mxCell>
        <mxCell id="THCGzzuzk-K5U6UD1SbX-87" value="" style="endArrow=classic;html=1;rounded=0;exitX=1;exitY=0.5;exitDx=0;exitDy=0;entryX=0;entryY=0.5;entryDx=0;entryDy=0;" parent="1" source="THCGzzuzk-K5U6UD1SbX-44" target="THCGzzuzk-K5U6UD1SbX-14" edge="1">
          <mxGeometry width="50" height="50" relative="1" as="geometry">
            <mxPoint x="-1570" y="1290" as="sourcePoint" />
            <mxPoint x="-1520" y="1240" as="targetPoint" />
          </mxGeometry>
        </mxCell>
        <mxCell id="THCGzzuzk-K5U6UD1SbX-91" value="" style="endArrow=classic;html=1;rounded=0;exitX=1;exitY=0.5;exitDx=0;exitDy=0;entryX=0;entryY=0.5;entryDx=0;entryDy=0;" parent="1" source="THCGzzuzk-K5U6UD1SbX-65" target="THCGzzuzk-K5U6UD1SbX-14" edge="1">
          <mxGeometry width="50" height="50" relative="1" as="geometry">
            <mxPoint x="-1690" y="1260" as="sourcePoint" />
            <mxPoint x="-1640" y="1210" as="targetPoint" />
            <Array as="points">
              <mxPoint x="-2660" y="1795" />
              <mxPoint x="-2210" y="1800" />
            </Array>
          </mxGeometry>
        </mxCell>
        <mxCell id="THCGzzuzk-K5U6UD1SbX-92" value="" style="endArrow=classic;html=1;rounded=0;exitX=1;exitY=0.5;exitDx=0;exitDy=0;entryX=0;entryY=0.5;entryDx=0;entryDy=0;" parent="1" source="THCGzzuzk-K5U6UD1SbX-15" target="THCGzzuzk-K5U6UD1SbX-32" edge="1">
          <mxGeometry width="50" height="50" relative="1" as="geometry">
            <mxPoint x="-1770" y="990" as="sourcePoint" />
            <mxPoint x="-1720" y="940" as="targetPoint" />
          </mxGeometry>
        </mxCell>
        <mxCell id="THCGzzuzk-K5U6UD1SbX-93" value="" style="endArrow=classic;html=1;rounded=0;exitX=1;exitY=0.5;exitDx=0;exitDy=0;entryX=0;entryY=0.5;entryDx=0;entryDy=0;" parent="1" source="THCGzzuzk-K5U6UD1SbX-44" target="THCGzzuzk-K5U6UD1SbX-32" edge="1">
          <mxGeometry width="50" height="50" relative="1" as="geometry">
            <mxPoint x="-2020" y="1340" as="sourcePoint" />
            <mxPoint x="-1970" y="1290" as="targetPoint" />
          </mxGeometry>
        </mxCell>
        <mxCell id="THCGzzuzk-K5U6UD1SbX-95" value="" style="endArrow=classic;html=1;rounded=0;exitX=1;exitY=0.5;exitDx=0;exitDy=0;entryX=0;entryY=0.5;entryDx=0;entryDy=0;" parent="1" source="THCGzzuzk-K5U6UD1SbX-65" target="THCGzzuzk-K5U6UD1SbX-11" edge="1">
          <mxGeometry width="50" height="50" relative="1" as="geometry">
            <mxPoint x="-1860" y="1290" as="sourcePoint" />
            <mxPoint x="-1810" y="1240" as="targetPoint" />
            <Array as="points">
              <mxPoint x="-2380" y="880" />
            </Array>
          </mxGeometry>
        </mxCell>
        <mxCell id="THCGzzuzk-K5U6UD1SbX-96" value="" style="endArrow=classic;html=1;rounded=0;exitX=1;exitY=0.5;exitDx=0;exitDy=0;entryX=0;entryY=0.5;entryDx=0;entryDy=0;" parent="1" source="THCGzzuzk-K5U6UD1SbX-44" target="THCGzzuzk-K5U6UD1SbX-11" edge="1">
          <mxGeometry width="50" height="50" relative="1" as="geometry">
            <mxPoint x="-1860" y="1290" as="sourcePoint" />
            <mxPoint x="-1810" y="1240" as="targetPoint" />
            <Array as="points">
              <mxPoint x="-2310" y="800" />
            </Array>
          </mxGeometry>
        </mxCell>
        <mxCell id="THCGzzuzk-K5U6UD1SbX-97" value="" style="endArrow=classic;html=1;rounded=0;exitX=1;exitY=0.5;exitDx=0;exitDy=0;entryX=0;entryY=0.5;entryDx=0;entryDy=0;" parent="1" source="THCGzzuzk-K5U6UD1SbX-11" target="THCGzzuzk-K5U6UD1SbX-54" edge="1">
          <mxGeometry width="50" height="50" relative="1" as="geometry">
            <mxPoint x="-800" y="1120" as="sourcePoint" />
            <mxPoint x="-750" y="1070" as="targetPoint" />
          </mxGeometry>
        </mxCell>
        <mxCell id="THCGzzuzk-K5U6UD1SbX-98" value="" style="endArrow=classic;html=1;rounded=0;exitX=1;exitY=0.5;exitDx=0;exitDy=0;entryX=0;entryY=0.5;entryDx=0;entryDy=0;" parent="1" source="THCGzzuzk-K5U6UD1SbX-32" target="THCGzzuzk-K5U6UD1SbX-6" edge="1">
          <mxGeometry width="50" height="50" relative="1" as="geometry">
            <mxPoint x="-970" y="720" as="sourcePoint" />
            <mxPoint x="-920" y="670" as="targetPoint" />
            <Array as="points">
              <mxPoint x="-2210" y="880" />
              <mxPoint x="-730" y="880" />
            </Array>
          </mxGeometry>
        </mxCell>
        <mxCell id="THCGzzuzk-K5U6UD1SbX-99" value="" style="endArrow=classic;html=1;rounded=0;exitX=1;exitY=0.5;exitDx=0;exitDy=0;entryX=0;entryY=0.5;entryDx=0;entryDy=0;" parent="1" source="THCGzzuzk-K5U6UD1SbX-1" target="THCGzzuzk-K5U6UD1SbX-7" edge="1">
          <mxGeometry width="50" height="50" relative="1" as="geometry">
            <mxPoint x="-1940" y="1270" as="sourcePoint" />
            <mxPoint x="-1890" y="1220" as="targetPoint" />
            <Array as="points">
              <mxPoint x="-2720" y="1960" />
              <mxPoint x="-1870" y="1970" />
              <mxPoint x="-860" y="1970" />
            </Array>
          </mxGeometry>
        </mxCell>
        <mxCell id="THCGzzuzk-K5U6UD1SbX-7" value="&lt;font style=&quot;font-size: 16px;&quot;&gt;&lt;b&gt;os-axions&lt;/b&gt;&lt;/font&gt;" style="rounded=0;whiteSpace=wrap;html=1;fillColor=#007FFF;" parent="1" vertex="1">
          <mxGeometry x="-160" y="1730" width="150" height="130" as="geometry" />
        </mxCell>
        <mxCell id="THCGzzuzk-K5U6UD1SbX-102" value="" style="endArrow=classic;html=1;rounded=0;exitX=1;exitY=0.5;exitDx=0;exitDy=0;entryX=0;entryY=0.5;entryDx=0;entryDy=0;" parent="1" source="THCGzzuzk-K5U6UD1SbX-32" target="THCGzzuzk-K5U6UD1SbX-35" edge="1">
          <mxGeometry width="50" height="50" relative="1" as="geometry">
            <mxPoint x="-710" y="1340" as="sourcePoint" />
            <mxPoint x="-660" y="1290" as="targetPoint" />
          </mxGeometry>
        </mxCell>
        <mxCell id="THCGzzuzk-K5U6UD1SbX-103" value="" style="endArrow=classic;html=1;rounded=0;exitX=1;exitY=0.5;exitDx=0;exitDy=0;entryX=0;entryY=0.5;entryDx=0;entryDy=0;" parent="1" source="THCGzzuzk-K5U6UD1SbX-32" target="THCGzzuzk-K5U6UD1SbX-13" edge="1">
          <mxGeometry width="50" height="50" relative="1" as="geometry">
            <mxPoint x="-1060" y="1460" as="sourcePoint" />
            <mxPoint x="-1010" y="1410" as="targetPoint" />
            <Array as="points" />
          </mxGeometry>
        </mxCell>
        <mxCell id="THCGzzuzk-K5U6UD1SbX-104" value="" style="endArrow=classic;html=1;rounded=0;exitX=1;exitY=0.5;exitDx=0;exitDy=0;entryX=0;entryY=0.5;entryDx=0;entryDy=0;" parent="1" source="THCGzzuzk-K5U6UD1SbX-14" target="THCGzzuzk-K5U6UD1SbX-13" edge="1">
          <mxGeometry width="50" height="50" relative="1" as="geometry">
            <mxPoint x="-1020" y="1380" as="sourcePoint" />
            <mxPoint x="-970" y="1330" as="targetPoint" />
            <Array as="points">
              <mxPoint x="-1455" y="2710" />
              <mxPoint x="-1320" y="2095" />
            </Array>
          </mxGeometry>
        </mxCell>
        <mxCell id="THCGzzuzk-K5U6UD1SbX-105" value="" style="endArrow=classic;html=1;rounded=0;exitX=1;exitY=0.5;exitDx=0;exitDy=0;entryX=0;entryY=0.5;entryDx=0;entryDy=0;" parent="1" source="THCGzzuzk-K5U6UD1SbX-35" target="THCGzzuzk-K5U6UD1SbX-13" edge="1">
          <mxGeometry width="50" height="50" relative="1" as="geometry">
            <mxPoint x="-440" y="1380" as="sourcePoint" />
            <mxPoint x="-390" y="1330" as="targetPoint" />
          </mxGeometry>
        </mxCell>
        <mxCell id="THCGzzuzk-K5U6UD1SbX-106" value="" style="endArrow=classic;html=1;rounded=0;exitX=1;exitY=0.5;exitDx=0;exitDy=0;entryX=0;entryY=0.5;entryDx=0;entryDy=0;" parent="1" source="THCGzzuzk-K5U6UD1SbX-54" target="THCGzzuzk-K5U6UD1SbX-6" edge="1">
          <mxGeometry width="50" height="50" relative="1" as="geometry">
            <mxPoint x="-990" y="1040" as="sourcePoint" />
            <mxPoint x="-940" y="990" as="targetPoint" />
          </mxGeometry>
        </mxCell>
        <mxCell id="THCGzzuzk-K5U6UD1SbX-107" value="" style="endArrow=classic;html=1;rounded=0;exitX=1;exitY=0.5;exitDx=0;exitDy=0;entryX=0;entryY=0.5;entryDx=0;entryDy=0;" parent="1" source="THCGzzuzk-K5U6UD1SbX-30" target="THCGzzuzk-K5U6UD1SbX-4" edge="1">
          <mxGeometry width="50" height="50" relative="1" as="geometry">
            <mxPoint x="380" y="630" as="sourcePoint" />
            <mxPoint x="430" y="580" as="targetPoint" />
          </mxGeometry>
        </mxCell>
        <mxCell id="THCGzzuzk-K5U6UD1SbX-108" value="" style="endArrow=classic;html=1;rounded=0;exitX=1;exitY=0.5;exitDx=0;exitDy=0;entryX=0;entryY=0.5;entryDx=0;entryDy=0;" parent="1" source="THCGzzuzk-K5U6UD1SbX-10" target="THCGzzuzk-K5U6UD1SbX-4" edge="1">
          <mxGeometry width="50" height="50" relative="1" as="geometry">
            <mxPoint x="-640" y="1070" as="sourcePoint" />
            <mxPoint x="-590" y="1020" as="targetPoint" />
            <Array as="points">
              <mxPoint x="-200" y="870" />
            </Array>
          </mxGeometry>
        </mxCell>
        <mxCell id="THCGzzuzk-K5U6UD1SbX-15" value="&lt;font style=&quot;font-size: 16px;&quot;&gt;&lt;b&gt;os-bremsstrahlung&lt;/b&gt;&lt;/font&gt;" style="rounded=0;whiteSpace=wrap;html=1;strokeColor=#000000;fillColor=#FFFF00;" parent="1" vertex="1">
          <mxGeometry x="-2780" y="1470" width="150" height="130" as="geometry" />
        </mxCell>
        <mxCell id="THCGzzuzk-K5U6UD1SbX-10" value="&lt;font style=&quot;font-size: 16px;&quot;&gt;&lt;b&gt;os-betheheitler&lt;/b&gt;&lt;/font&gt;" style="rounded=0;whiteSpace=wrap;html=1;fillColor=#FFFF00;" parent="1" vertex="1">
          <mxGeometry x="-2100" y="910" width="150" height="130" as="geometry" />
        </mxCell>
        <mxCell id="THCGzzuzk-K5U6UD1SbX-114" value="" style="endArrow=classic;html=1;rounded=0;exitX=1;exitY=0.5;exitDx=0;exitDy=0;entryX=0;entryY=0.5;entryDx=0;entryDy=0;" parent="1" source="THCGzzuzk-K5U6UD1SbX-32" target="THCGzzuzk-K5U6UD1SbX-11" edge="1">
          <mxGeometry width="50" height="50" relative="1" as="geometry">
            <mxPoint x="-820" y="1390" as="sourcePoint" />
            <mxPoint x="-770" y="1340" as="targetPoint" />
            <Array as="points">
              <mxPoint x="-2120" y="760" />
            </Array>
          </mxGeometry>
        </mxCell>
        <mxCell id="THCGzzuzk-K5U6UD1SbX-115" value="" style="endArrow=classic;html=1;rounded=0;exitX=1;exitY=0.5;exitDx=0;exitDy=0;entryX=0;entryY=0.5;entryDx=0;entryDy=0;" parent="1" source="THCGzzuzk-K5U6UD1SbX-44" target="THCGzzuzk-K5U6UD1SbX-7" edge="1">
          <mxGeometry width="50" height="50" relative="1" as="geometry">
            <mxPoint x="-1630" y="1470" as="sourcePoint" />
            <mxPoint x="-1580" y="1420" as="targetPoint" />
          </mxGeometry>
        </mxCell>
        <mxCell id="THCGzzuzk-K5U6UD1SbX-121" style="edgeStyle=orthogonalEdgeStyle;rounded=0;orthogonalLoop=1;jettySize=auto;html=1;exitX=1;exitY=0.5;exitDx=0;exitDy=0;entryX=0;entryY=0.5;entryDx=0;entryDy=0;" parent="1" source="THCGzzuzk-K5U6UD1SbX-116" target="THCGzzuzk-K5U6UD1SbX-118" edge="1">
          <mxGeometry relative="1" as="geometry" />
        </mxCell>
        <mxCell id="THCGzzuzk-K5U6UD1SbX-122" style="edgeStyle=orthogonalEdgeStyle;rounded=0;orthogonalLoop=1;jettySize=auto;html=1;exitX=1;exitY=0.5;exitDx=0;exitDy=0;entryX=0;entryY=0.5;entryDx=0;entryDy=0;" parent="1" source="THCGzzuzk-K5U6UD1SbX-116" target="THCGzzuzk-K5U6UD1SbX-117" edge="1">
          <mxGeometry relative="1" as="geometry" />
        </mxCell>
        <mxCell id="THCGzzuzk-K5U6UD1SbX-123" style="edgeStyle=orthogonalEdgeStyle;rounded=0;orthogonalLoop=1;jettySize=auto;html=1;exitX=1;exitY=0.5;exitDx=0;exitDy=0;entryX=0;entryY=0.5;entryDx=0;entryDy=0;" parent="1" source="THCGzzuzk-K5U6UD1SbX-116" target="THCGzzuzk-K5U6UD1SbX-119" edge="1">
          <mxGeometry relative="1" as="geometry" />
        </mxCell>
        <mxCell id="THCGzzuzk-K5U6UD1SbX-116" value="&lt;font style=&quot;&quot;&gt;&lt;b style=&quot;&quot;&gt;&lt;font style=&quot;font-size: 18px;&quot;&gt;os-qed-coulomb&lt;/font&gt;&lt;span style=&quot;font-size: 16px;&quot;&gt;:&lt;/span&gt;&lt;/b&gt;&lt;/font&gt;&lt;div&gt;axis_prim_theta (table)&lt;br&gt;&lt;div&gt;prim_cs (table)&lt;/div&gt;&lt;div&gt;prim_cdf (table)&lt;/div&gt;&lt;div&gt;prim_cs (SR)&lt;/div&gt;&lt;/div&gt;&lt;div&gt;prim_proba (SR)&lt;/div&gt;&lt;div&gt;prim_cdf (SR)&lt;/div&gt;&lt;div&gt;prim_spec (SR)&lt;/div&gt;" style="rounded=0;whiteSpace=wrap;html=1;fillColor=#80FF00;" parent="1" vertex="1">
          <mxGeometry x="-3160" y="3360" width="200" height="160" as="geometry" />
        </mxCell>
        <mxCell id="THCGzzuzk-K5U6UD1SbX-117" value="&lt;font style=&quot;font-size: 18px;&quot;&gt;&lt;b style=&quot;&quot;&gt;os-spec-push-qed&lt;/b&gt;&lt;/font&gt;" style="rounded=0;whiteSpace=wrap;html=1;fillColor=#FFFFFF;" parent="1" vertex="1">
          <mxGeometry x="-2840" y="3360" width="200" height="160" as="geometry" />
        </mxCell>
        <mxCell id="THCGzzuzk-K5U6UD1SbX-118" value="&lt;font style=&quot;font-size: 18px;&quot;&gt;&lt;b style=&quot;&quot;&gt;os-axions&lt;/b&gt;&lt;/font&gt;" style="rounded=0;whiteSpace=wrap;html=1;fillColor=#007FFF;" parent="1" vertex="1">
          <mxGeometry x="-2840" y="3000" width="200" height="160" as="geometry" />
        </mxCell>
        <mxCell id="THCGzzuzk-K5U6UD1SbX-119" value="&lt;font style=&quot;font-size: 18px;&quot;&gt;&lt;b style=&quot;&quot;&gt;os-photons&lt;/b&gt;&lt;/font&gt;" style="rounded=0;whiteSpace=wrap;html=1;fillColor=#99FFFF;" parent="1" vertex="1">
          <mxGeometry x="-2840" y="3720" width="200" height="160" as="geometry" />
        </mxCell>
        <mxCell id="THCGzzuzk-K5U6UD1SbX-124" value="&lt;font style=&quot;font-size: 18px;&quot;&gt;&lt;b&gt;advance_axions&lt;/b&gt;&lt;/font&gt;" style="rhombus;whiteSpace=wrap;html=1;" parent="1" vertex="1">
          <mxGeometry x="-2500" y="3000" width="210" height="160" as="geometry" />
        </mxCell>
        <mxCell id="THCGzzuzk-K5U6UD1SbX-125" value="&lt;font style=&quot;font-size: 18px;&quot;&gt;&lt;b&gt;advance_photons&lt;/b&gt;&lt;/font&gt;" style="rhombus;whiteSpace=wrap;html=1;" parent="1" vertex="1">
          <mxGeometry x="-2500" y="3720" width="210" height="160" as="geometry" />
        </mxCell>
        <mxCell id="THCGzzuzk-K5U6UD1SbX-126" value="&lt;font style=&quot;font-size: 18px;&quot;&gt;&lt;b&gt;set_dudt_spec_qed&lt;/b&gt;&lt;/font&gt;" style="rhombus;whiteSpace=wrap;html=1;" parent="1" vertex="1">
          <mxGeometry x="-2500" y="3360" width="210" height="160" as="geometry" />
        </mxCell>
        <mxCell id="THCGzzuzk-K5U6UD1SbX-131" value="" style="shape=flexArrow;endArrow=classic;startArrow=classic;html=1;rounded=0;exitX=1;exitY=0.5;exitDx=0;exitDy=0;entryX=0;entryY=0.5;entryDx=0;entryDy=0;" parent="1" source="THCGzzuzk-K5U6UD1SbX-118" target="THCGzzuzk-K5U6UD1SbX-124" edge="1">
          <mxGeometry width="100" height="100" relative="1" as="geometry">
            <mxPoint x="-2500" y="3450" as="sourcePoint" />
            <mxPoint x="-2400" y="3350" as="targetPoint" />
          </mxGeometry>
        </mxCell>
        <mxCell id="THCGzzuzk-K5U6UD1SbX-132" value="" style="shape=flexArrow;endArrow=classic;startArrow=classic;html=1;rounded=0;exitX=1;exitY=0.5;exitDx=0;exitDy=0;entryX=0;entryY=0.5;entryDx=0;entryDy=0;" parent="1" source="THCGzzuzk-K5U6UD1SbX-117" target="THCGzzuzk-K5U6UD1SbX-126" edge="1">
          <mxGeometry width="100" height="100" relative="1" as="geometry">
            <mxPoint x="-2620" y="3370" as="sourcePoint" />
            <mxPoint x="-2480" y="3370" as="targetPoint" />
          </mxGeometry>
        </mxCell>
        <mxCell id="THCGzzuzk-K5U6UD1SbX-133" value="" style="shape=flexArrow;endArrow=classic;startArrow=classic;html=1;rounded=0;exitX=1;exitY=0.5;exitDx=0;exitDy=0;" parent="1" source="THCGzzuzk-K5U6UD1SbX-119" target="THCGzzuzk-K5U6UD1SbX-125" edge="1">
          <mxGeometry width="100" height="100" relative="1" as="geometry">
            <mxPoint x="-2630" y="3450" as="sourcePoint" />
            <mxPoint x="-2490" y="3450" as="targetPoint" />
          </mxGeometry>
        </mxCell>
        <mxCell id="THCGzzuzk-K5U6UD1SbX-134" value="" style="endArrow=classic;html=1;rounded=0;exitX=1;exitY=0.5;exitDx=0;exitDy=0;entryX=0;entryY=0.5;entryDx=0;entryDy=0;" parent="1" source="THCGzzuzk-K5U6UD1SbX-125" target="THCGzzuzk-K5U6UD1SbX-135" edge="1">
          <mxGeometry width="50" height="50" relative="1" as="geometry">
            <mxPoint x="-2310" y="3450" as="sourcePoint" />
            <mxPoint x="-2230" y="3520" as="targetPoint" />
          </mxGeometry>
        </mxCell>
        <mxCell id="THCGzzuzk-K5U6UD1SbX-143" style="edgeStyle=orthogonalEdgeStyle;rounded=0;orthogonalLoop=1;jettySize=auto;html=1;exitX=0;exitY=1;exitDx=0;exitDy=0;" parent="1" source="THCGzzuzk-K5U6UD1SbX-135" edge="1">
          <mxGeometry relative="1" as="geometry">
            <mxPoint x="-2150" y="3940" as="targetPoint" />
          </mxGeometry>
        </mxCell>
        <mxCell id="THCGzzuzk-K5U6UD1SbX-144" style="edgeStyle=orthogonalEdgeStyle;rounded=0;orthogonalLoop=1;jettySize=auto;html=1;exitX=0.25;exitY=1;exitDx=0;exitDy=0;" parent="1" source="THCGzzuzk-K5U6UD1SbX-135" edge="1">
          <mxGeometry relative="1" as="geometry">
            <mxPoint x="-2100" y="3940" as="targetPoint" />
          </mxGeometry>
        </mxCell>
        <mxCell id="THCGzzuzk-K5U6UD1SbX-145" style="edgeStyle=orthogonalEdgeStyle;rounded=0;orthogonalLoop=1;jettySize=auto;html=1;exitX=0.5;exitY=1;exitDx=0;exitDy=0;" parent="1" source="THCGzzuzk-K5U6UD1SbX-135" edge="1">
          <mxGeometry relative="1" as="geometry">
            <mxPoint x="-2050" y="3940" as="targetPoint" />
          </mxGeometry>
        </mxCell>
        <mxCell id="THCGzzuzk-K5U6UD1SbX-146" style="edgeStyle=orthogonalEdgeStyle;rounded=0;orthogonalLoop=1;jettySize=auto;html=1;exitX=0.75;exitY=1;exitDx=0;exitDy=0;" parent="1" source="THCGzzuzk-K5U6UD1SbX-135" edge="1">
          <mxGeometry relative="1" as="geometry">
            <mxPoint x="-2000" y="3940" as="targetPoint" />
          </mxGeometry>
        </mxCell>
        <mxCell id="THCGzzuzk-K5U6UD1SbX-147" style="edgeStyle=orthogonalEdgeStyle;rounded=0;orthogonalLoop=1;jettySize=auto;html=1;exitX=1;exitY=1;exitDx=0;exitDy=0;" parent="1" source="THCGzzuzk-K5U6UD1SbX-135" edge="1">
          <mxGeometry relative="1" as="geometry">
            <mxPoint x="-1950" y="3940" as="targetPoint" />
          </mxGeometry>
        </mxCell>
        <mxCell id="THCGzzuzk-K5U6UD1SbX-135" value="&lt;font style=&quot;font-size: 18px;&quot;&gt;&lt;b style=&quot;&quot;&gt;os-photons-define&lt;/b&gt;&lt;/font&gt;" style="rounded=0;whiteSpace=wrap;html=1;fillColor=#99FFFF;" parent="1" vertex="1">
          <mxGeometry x="-2150" y="3720" width="200" height="160" as="geometry" />
        </mxCell>
        <mxCell id="THCGzzuzk-K5U6UD1SbX-136" value="&lt;font style=&quot;font-size: 18px;&quot;&gt;&lt;b style=&quot;&quot;&gt;os-axions-define&lt;/b&gt;&lt;/font&gt;" style="rounded=0;whiteSpace=wrap;html=1;fillColor=#007FFF;" parent="1" vertex="1">
          <mxGeometry x="-2150" y="3000" width="200" height="160" as="geometry" />
        </mxCell>
        <mxCell id="THCGzzuzk-K5U6UD1SbX-137" value="" style="endArrow=classic;html=1;rounded=0;exitX=1;exitY=0.5;exitDx=0;exitDy=0;entryX=0;entryY=0.5;entryDx=0;entryDy=0;" parent="1" source="THCGzzuzk-K5U6UD1SbX-124" target="THCGzzuzk-K5U6UD1SbX-136" edge="1">
          <mxGeometry width="50" height="50" relative="1" as="geometry">
            <mxPoint x="-2310" y="3480" as="sourcePoint" />
            <mxPoint x="-2260" y="3430" as="targetPoint" />
          </mxGeometry>
        </mxCell>
        <mxCell id="THCGzzuzk-K5U6UD1SbX-138" value="os-qed-coulomb ---&amp;gt;&amp;nbsp; bremsstrahlung_emission,trident_coul_pair_creation --&amp;gt;&amp;nbsp;dudt_boris_qed --&amp;gt;set_dudt_spec_qed" style="whiteSpace=wrap;html=1;" parent="1" vertex="1">
          <mxGeometry x="-3190" y="3320" width="630" height="20" as="geometry" />
        </mxCell>
        <mxCell id="THCGzzuzk-K5U6UD1SbX-139" value="&lt;font style=&quot;font-size: 18px;&quot;&gt;&lt;b style=&quot;&quot;&gt;os-spec-define-qed&lt;/b&gt;&lt;/font&gt;" style="rounded=0;whiteSpace=wrap;html=1;fillColor=#FFFFFF;" parent="1" vertex="1">
          <mxGeometry x="-2150" y="3360" width="200" height="160" as="geometry" />
        </mxCell>
        <mxCell id="THCGzzuzk-K5U6UD1SbX-140" value="" style="endArrow=classic;html=1;rounded=0;entryX=0;entryY=0.5;entryDx=0;entryDy=0;exitX=1;exitY=0.5;exitDx=0;exitDy=0;" parent="1" source="THCGzzuzk-K5U6UD1SbX-126" target="THCGzzuzk-K5U6UD1SbX-139" edge="1">
          <mxGeometry width="50" height="50" relative="1" as="geometry">
            <mxPoint x="-2260" y="3420" as="sourcePoint" />
            <mxPoint x="-2380" y="3410" as="targetPoint" />
          </mxGeometry>
        </mxCell>
        <mxCell id="THCGzzuzk-K5U6UD1SbX-141" value="os-qed-coulomb --&amp;gt; create_pairs_betheheitler --&amp;gt;&amp;nbsp;advance_photons" style="whiteSpace=wrap;html=1;" parent="1" vertex="1">
          <mxGeometry x="-2900" y="4800" width="940" height="20" as="geometry" />
        </mxCell>
        <mxCell id="THCGzzuzk-K5U6UD1SbX-142" value="NEEDS TO BE DONE" style="whiteSpace=wrap;html=1;fillColor=#FF3333;" parent="1" vertex="1">
          <mxGeometry x="-3070" y="2960" width="390" height="20" as="geometry" />
        </mxCell>
        <mxCell id="THCGzzuzk-K5U6UD1SbX-150" value="advance_photons" style="shape=hexagon;perimeter=hexagonPerimeter2;whiteSpace=wrap;html=1;fixedSize=1;rotation=90;" parent="1" vertex="1">
          <mxGeometry x="-2010" y="4000" width="120" height="20" as="geometry" />
        </mxCell>
        <mxCell id="THCGzzuzk-K5U6UD1SbX-151" value="report&lt;span style=&quot;color: rgba(0, 0, 0, 0); font-family: monospace; font-size: 0px; text-align: start; text-wrap: nowrap;&quot;&gt;%3CmxGraphModel%3E%3Croot%3E%3CmxCell%20id%3D%220%22%2F%3E%3CmxCell%20id%3D%221%22%20parent%3D%220%22%2F%3E%3CmxCell%20id%3D%222%22%20value%3D%22advance_photons%22%20style%3D%22shape%3Dhexagon%3Bperimeter%3DhexagonPerimeter2%3BwhiteSpace%3Dwrap%3Bhtml%3D1%3BfixedSize%3D1%3B%22%20vertex%3D%221%22%20parent%3D%221%22%3E%3CmxGeometry%20x%3D%22-2580%22%20y%3D%224060%22%20width%3D%22120%22%20height%3D%2220%22%20as%3D%22geometry%22%2F%3E%3C%2FmxCell%3E%3C%2Froot%3E%3C%2FmxGraphModel%3E&lt;/span&gt;&lt;span style=&quot;color: rgba(0, 0, 0, 0); font-family: monospace; font-size: 0px; text-align: start; text-wrap: nowrap;&quot;&gt;%3CmxGraphModel%3E%3Croot%3E%3CmxCell%20id%3D%220%22%2F%3E%3CmxCell%20id%3D%221%22%20parent%3D%220%22%2F%3E%3CmxCell%20id%3D%222%22%20value%3D%22advance_photons%22%20style%3D%22shape%3Dhexagon%3Bperimeter%3DhexagonPerimeter2%3BwhiteSpace%3Dwrap%3Bhtml%3D1%3BfixedSize%3D1%3B%22%20vertex%3D%221%22%20parent%3D%221%22%3E%3CmxGeometry%20x%3D%22-2580%22%20y%3D%224060%22%20width%3D%22120%22%20height%3D%2220%22%20as%3D%22geometry%22%2F%3E%3C%2FmxCell%3E%3C%2Froot%3E%3C%2FmxGraphModel%3E&lt;/span&gt;_photons" style="shape=hexagon;perimeter=hexagonPerimeter2;whiteSpace=wrap;html=1;fixedSize=1;rotation=90;" parent="1" vertex="1">
          <mxGeometry x="-2060" y="4000" width="120" height="20" as="geometry" />
        </mxCell>
        <mxCell id="THCGzzuzk-K5U6UD1SbX-152" value="report&lt;span style=&quot;color: rgba(0, 0, 0, 0); font-family: monospace; font-size: 0px; text-align: start; text-wrap: nowrap;&quot;&gt;%3CmxGraphModel%3E%3Croot%3E%3CmxCell%20id%3D%220%22%2F%3E%3CmxCell%20id%3D%221%22%20parent%3D%220%22%2F%3E%3CmxCell%20id%3D%222%22%20value%3D%22advance_photons%22%20style%3D%22shape%3Dhexagon%3Bperimeter%3DhexagonPerimeter2%3BwhiteSpace%3Dwrap%3Bhtml%3D1%3BfixedSize%3D1%3B%22%20vertex%3D%221%22%20parent%3D%221%22%3E%3CmxGeometry%20x%3D%22-2580%22%20y%3D%224060%22%20width%3D%22120%22%20height%3D%2220%22%20as%3D%22geometry%22%2F%3E%3C%2FmxCell%3E%3C%2Froot%3E%3C%2FmxGraphModel%3E&lt;/span&gt;&lt;span style=&quot;color: rgba(0, 0, 0, 0); font-family: monospace; font-size: 0px; text-align: start; text-wrap: nowrap;&quot;&gt;%3CmxGraphModel%3E%3Croot%3E%3CmxCell%20id%3D%220%22%2F%3E%3CmxCell%20id%3D%221%22%20parent%3D%220%22%2F%3E%3CmxCell%20id%3D%222%22%20value%3D%22advance_photons%22%20style%3D%22shape%3Dhexagon%3Bperimeter%3DhexagonPerimeter2%3BwhiteSpace%3Dwrap%3Bhtml%3D1%3BfixedSize%3D1%3B%22%20vertex%3D%221%22%20parent%3D%221%22%3E%3CmxGeometry%20x%3D%22-2580%22%20y%3D%224060%22%20width%3D%22120%22%20height%3D%2220%22%20as%3D%22geometry%22%2F%3E%3C%2FmxCell%3E%3C%2Froot%3E%3C%2FmxGraphModel%E_E3E__&lt;/span&gt;_energy_photons" style="shape=hexagon;perimeter=hexagonPerimeter2;whiteSpace=wrap;html=1;fixedSize=1;rotation=90;" parent="1" vertex="1">
          <mxGeometry x="-2125" y="4015" width="150" height="20" as="geometry" />
        </mxCell>
        <mxCell id="THCGzzuzk-K5U6UD1SbX-153" value="report&lt;span style=&quot;color: rgba(0, 0, 0, 0); font-family: monospace; font-size: 0px; text-align: start; text-wrap: nowrap;&quot;&gt;%mxGraphModel%3E%3Croot%3E%3CmxCell%20id%3D%220%22%2F%3E%3CmxCell%20id%3D%221%22%20parent%3D%220%22%2F%3E%3CmxCell%20id%3D%222%22%20value%3D%22advance_photons%22%20style%3D%22shape%3Dhexagon%3Bperimeter%3DhexagonPerimeter2%3BwhiteSpace%3Dwrap%3Bhtml%3D1%3BfixedSize%3D1%3B%22%20vertex%3D%221%22%20parent%3D%221%22%3E%3CmxGeometry%20x%3D%22-2580%22%20y%3D%224060%22%20width%3D%22120%22%20height%3D%2220%22%20as%3D%22geometry%22%2F%3E%3C%2FmxCell%3E%3C%2Froot%3E%3C%2FmxGraphModel%3E&lt;/span&gt;&lt;span style=&quot;color: rgba(0, 0, 0, 0); font-family: monospace; font-size: 0px; text-align: start; text-wrap: nowrap;&quot;&gt;%3CmxGraphModel%3E%3Croot%3E%3CmxCell%20id%3D%220%22%2F%3E%3CmxCell%20id%3D%221%22%20parent%3D%220%22%2F%3E%3CmxCell%20id%3D%222%22%20value%3D%22advance_photons%22%20style%3D%22shape%3Dhexagon%3Bperimeter%3DhexagonPerimeter2%3BwhiteSpace%3Dwrap%3Bhtml%3D1%3BfixedSize%3D1%3B%22%20vertex%3D%221%22%20parent%3D%221%22%3E%3CmxGeometry%20x%3D%22-2580%22%20y%3D%224060%22%20width%3D%22120%22%20height%3D%2220%22%20as%3D%22geometry%22%2F%3E%3C%2FmxCell%3E%3C%2Froot%3E%3C%2FmxGraphModel%E_E3E__&lt;/span&gt;_pairs_photons" style="shape=hexagon;perimeter=hexagonPerimeter2;whiteSpace=wrap;html=1;fixedSize=1;rotation=90;" parent="1" vertex="1">
          <mxGeometry x="-2175" y="4016" width="150" height="20" as="geometry" />
        </mxCell>
        <mxCell id="THCGzzuzk-K5U6UD1SbX-154" value="&lt;font style=&quot;font-size: 24px;&quot;&gt;Module&lt;/font&gt;" style="rounded=0;whiteSpace=wrap;html=1;" parent="1" vertex="1">
          <mxGeometry x="-3785" y="3350" width="120" height="80" as="geometry" />
        </mxCell>
        <mxCell id="THCGzzuzk-K5U6UD1SbX-155" value="&lt;font style=&quot;font-size: 24px;&quot;&gt;Subroutine&lt;/font&gt;" style="rhombus;whiteSpace=wrap;html=1;" parent="1" vertex="1">
          <mxGeometry x="-3805" y="3450" width="160" height="120" as="geometry" />
        </mxCell>
        <mxCell id="THCGzzuzk-K5U6UD1SbX-156" value="&lt;font style=&quot;font-size: 24px;&quot;&gt;Interfaced subroutine&lt;/font&gt;" style="shape=hexagon;perimeter=hexagonPerimeter2;whiteSpace=wrap;html=1;fixedSize=1;" parent="1" vertex="1">
          <mxGeometry x="-3855" y="3590" width="260" height="40" as="geometry" />
        </mxCell>
        <mxCell id="THCGzzuzk-K5U6UD1SbX-158" value="&lt;font style=&quot;font-size: 24px;&quot;&gt;Shapes key&lt;/font&gt;" style="rounded=0;whiteSpace=wrap;html=1;strokeColor=#FFFFFF;" parent="1" vertex="1">
          <mxGeometry x="-3845" y="3220" width="240" height="60" as="geometry" />
        </mxCell>
        <mxCell id="THCGzzuzk-K5U6UD1SbX-159" value="&lt;font style=&quot;font-size: 12px;&quot;&gt;advance_photons --&amp;gt; t_photons&amp;nbsp;&lt;/font&gt;" style="whiteSpace=wrap;html=1;" parent="1" vertex="1">
          <mxGeometry x="-2370" y="3680" width="260" height="20" as="geometry" />
        </mxCell>
        <mxCell id="THCGzzuzk-K5U6UD1SbX-160" value="" style="shape=flexArrow;endArrow=classic;startArrow=classic;html=1;rounded=0;exitX=1;exitY=0.5;exitDx=0;exitDy=0;entryX=0;entryY=0.5;entryDx=0;entryDy=0;" parent="1" source="THCGzzuzk-K5U6UD1SbX-135" target="THCGzzuzk-K5U6UD1SbX-161" edge="1">
          <mxGeometry width="100" height="100" relative="1" as="geometry">
            <mxPoint x="-1860" y="3890" as="sourcePoint" />
            <mxPoint x="-1730" y="3910" as="targetPoint" />
          </mxGeometry>
        </mxCell>
        <mxCell id="THCGzzuzk-K5U6UD1SbX-161" value="&lt;font style=&quot;font-size: 18px;&quot;&gt;&lt;b style=&quot;&quot;&gt;t_photons&lt;/b&gt;&lt;/font&gt;" style="ellipse;whiteSpace=wrap;html=1;" parent="1" vertex="1">
          <mxGeometry x="-1800" y="3720" width="200" height="160" as="geometry" />
        </mxCell>
        <mxCell id="THCGzzuzk-K5U6UD1SbX-162" value="&lt;font style=&quot;font-size: 24px;&quot;&gt;Type&lt;/font&gt;" style="ellipse;whiteSpace=wrap;html=1;" parent="1" vertex="1">
          <mxGeometry x="-3785" y="3660" width="120" height="80" as="geometry" />
        </mxCell>
        <mxCell id="THCGzzuzk-K5U6UD1SbX-163" value="&lt;font style=&quot;font-size: 12px;&quot;&gt;t_photons was used as a class in&lt;/font&gt;&lt;div&gt;&lt;font style=&quot;font-size: 12px;&quot;&gt;os-qed-collide&lt;/font&gt;&lt;/div&gt;&lt;div&gt;&lt;font style=&quot;font-size: 12px;&quot;&gt;os-photons&lt;/font&gt;&lt;/div&gt;&lt;div&gt;&lt;font style=&quot;font-size: 12px;&quot;&gt;advance_photons in os-photons!!&amp;nbsp;&lt;/font&gt;&lt;/div&gt;&lt;div&gt;&lt;font style=&quot;font-size: 12px;&quot;&gt;photons-diagnostic&lt;/font&gt;&lt;/div&gt;&lt;div&gt;&lt;font style=&quot;font-size: 12px;&quot;&gt;photons-define&lt;/font&gt;&lt;/div&gt;&lt;div&gt;&lt;font style=&quot;font-size: 12px;&quot;&gt;&lt;span style=&quot;color: rgb(31, 35, 40); font-family: -apple-system, BlinkMacSystemFont, &amp;quot;Segoe UI&amp;quot;, &amp;quot;Noto Sans&amp;quot;, Helvetica, Arial, sans-serif, &amp;quot;Apple Color Emoji&amp;quot;, &amp;quot;Segoe UI Emoji&amp;quot;; text-align: start; text-wrap: wrap; background-color: rgb(246, 248, 250);&quot;&gt;os-particles-qed&lt;/span&gt;&lt;br&gt;&lt;/font&gt;&lt;/div&gt;&lt;div&gt;&lt;span style=&quot;color: rgb(31, 35, 40); font-family: -apple-system, BlinkMacSystemFont, &amp;quot;Segoe UI&amp;quot;, &amp;quot;Noto Sans&amp;quot;, Helvetica, Arial, sans-serif, &amp;quot;Apple Color Emoji&amp;quot;, &amp;quot;Segoe UI Emoji&amp;quot;; font-weight: 600; text-align: start; text-wrap: wrap; background-color: rgb(246, 248, 250);&quot;&gt;&lt;font style=&quot;font-size: 12px;&quot;&gt;&lt;br&gt;&lt;/font&gt;&lt;/span&gt;&lt;/div&gt;&lt;div&gt;&lt;font style=&quot;font-size: 12px;&quot;&gt;and as a qed group in&lt;/font&gt;&lt;/div&gt;&lt;div&gt;&lt;span style=&quot;color: rgb(31, 35, 40); font-family: -apple-system, BlinkMacSystemFont, &amp;quot;Segoe UI&amp;quot;, &amp;quot;Noto Sans&amp;quot;, Helvetica, Arial, sans-serif, &amp;quot;Apple Color Emoji&amp;quot;, &amp;quot;Segoe UI Emoji&amp;quot;; text-align: start; text-wrap: wrap; background-color: rgb(246, 248, 250);&quot;&gt;&lt;font style=&quot;font-size: 12px;&quot;&gt;os-particles-qed&lt;/font&gt;&lt;/span&gt;&lt;br&gt;&lt;/div&gt;" style="text;html=1;align=center;verticalAlign=middle;resizable=0;points=[];autosize=1;strokeColor=none;fillColor=#FFFFFF;" parent="1" vertex="1">
          <mxGeometry x="-1800" y="3900" width="200" height="160" as="geometry" />
        </mxCell>
        <mxCell id="THCGzzuzk-K5U6UD1SbX-164" value="" style="endArrow=classic;startArrow=classic;html=1;rounded=0;entryX=0;entryY=0;entryDx=0;entryDy=0;exitX=0.5;exitY=0;exitDx=0;exitDy=0;" parent="1" source="THCGzzuzk-K5U6UD1SbX-125" target="THCGzzuzk-K5U6UD1SbX-161" edge="1">
          <mxGeometry width="50" height="50" relative="1" as="geometry">
            <mxPoint x="-1950" y="3790" as="sourcePoint" />
            <mxPoint x="-1900" y="3740" as="targetPoint" />
            <Array as="points">
              <mxPoint x="-2395" y="3630" />
              <mxPoint x="-2130" y="3580" />
            </Array>
          </mxGeometry>
        </mxCell>
        <mxCell id="THCGzzuzk-K5U6UD1SbX-165" value="t_photons defined here; its the most important outcome of this module" style="rounded=0;whiteSpace=wrap;html=1;strokeColor=#99FFFF;" parent="1" vertex="1">
          <mxGeometry x="-2110" y="3816" width="120" height="60" as="geometry" />
        </mxCell>
        <mxCell id="THCGzzuzk-K5U6UD1SbX-166" value="m_photons_define = t_photons" style="text;html=1;align=center;verticalAlign=middle;resizable=0;points=[];autosize=1;strokeColor=none;fillColor=none;" parent="1" vertex="1">
          <mxGeometry x="-1960" y="3835" width="190" height="30" as="geometry" />
        </mxCell>
        <mxCell id="THCGzzuzk-K5U6UD1SbX-170" style="edgeStyle=orthogonalEdgeStyle;rounded=0;orthogonalLoop=1;jettySize=auto;html=1;exitX=1;exitY=0.5;exitDx=0;exitDy=0;entryX=0;entryY=0.5;entryDx=0;entryDy=0;" parent="1" source="THCGzzuzk-K5U6UD1SbX-168" target="THCGzzuzk-K5U6UD1SbX-169" edge="1">
          <mxGeometry relative="1" as="geometry" />
        </mxCell>
        <mxCell id="THCGzzuzk-K5U6UD1SbX-168" value="&lt;font style=&quot;font-size: 18px;&quot;&gt;&lt;b style=&quot;&quot;&gt;os-photons-define&lt;/b&gt;&lt;/font&gt;" style="rounded=0;whiteSpace=wrap;html=1;fillColor=#99FFFF;" parent="1" vertex="1">
          <mxGeometry x="-2900" y="4520" width="200" height="160" as="geometry" />
        </mxCell>
        <mxCell id="THCGzzuzk-K5U6UD1SbX-169" value="&lt;font style=&quot;font-size: 18px;&quot;&gt;&lt;b style=&quot;&quot;&gt;t_photons&lt;/b&gt;&lt;/font&gt;" style="ellipse;whiteSpace=wrap;html=1;" parent="1" vertex="1">
          <mxGeometry x="-2490" y="4520" width="200" height="160" as="geometry" />
        </mxCell>
        <mxCell id="THCGzzuzk-K5U6UD1SbX-171" value="&lt;font style=&quot;font-size: 18px;&quot;&gt;How&#39;s advance_photons in os-photons different than advance_photons in os-photons-define?&amp;nbsp;&lt;/font&gt;&lt;div&gt;&lt;font size=&quot;3&quot;&gt;Are they both the same?&lt;/font&gt;&lt;/div&gt;" style="text;html=1;align=center;verticalAlign=middle;resizable=0;points=[];autosize=1;strokeColor=#000000;fillColor=#FF3333;" parent="1" vertex="1">
          <mxGeometry x="-2680" y="4240" width="770" height="50" as="geometry" />
        </mxCell>
        <mxCell id="THCGzzuzk-K5U6UD1SbX-175" style="edgeStyle=orthogonalEdgeStyle;rounded=0;orthogonalLoop=1;jettySize=auto;html=1;exitX=1;exitY=0.5;exitDx=0;exitDy=0;entryX=0;entryY=0.5;entryDx=0;entryDy=0;" parent="1" source="THCGzzuzk-K5U6UD1SbX-172" target="THCGzzuzk-K5U6UD1SbX-173" edge="1">
          <mxGeometry relative="1" as="geometry" />
        </mxCell>
        <mxCell id="THCGzzuzk-K5U6UD1SbX-172" value="&lt;font style=&quot;&quot;&gt;&lt;b style=&quot;&quot;&gt;&lt;font style=&quot;font-size: 18px;&quot;&gt;os-qed-coulomb&lt;/font&gt;&lt;span style=&quot;font-size: 16px;&quot;&gt;:&lt;/span&gt;&lt;/b&gt;&lt;/font&gt;&lt;div&gt;axis_prim_theta (table)&lt;br&gt;&lt;div&gt;prim_cs (table)&lt;/div&gt;&lt;div&gt;prim_cdf (table)&lt;/div&gt;&lt;div&gt;prim_cs (SR)&lt;/div&gt;&lt;/div&gt;&lt;div&gt;prim_proba (SR)&lt;/div&gt;&lt;div&gt;prim_cdf (SR)&lt;/div&gt;&lt;div&gt;prim_spec (SR)&lt;/div&gt;" style="rounded=0;whiteSpace=wrap;html=1;fillColor=#80FF00;" parent="1" vertex="1">
          <mxGeometry x="-2900" y="4850" width="200" height="160" as="geometry" />
        </mxCell>
        <mxCell id="THCGzzuzk-K5U6UD1SbX-176" style="edgeStyle=orthogonalEdgeStyle;rounded=0;orthogonalLoop=1;jettySize=auto;html=1;exitX=1;exitY=0.5;exitDx=0;exitDy=0;entryX=0;entryY=0.5;entryDx=0;entryDy=0;" parent="1" source="THCGzzuzk-K5U6UD1SbX-173" target="THCGzzuzk-K5U6UD1SbX-174" edge="1">
          <mxGeometry relative="1" as="geometry" />
        </mxCell>
        <mxCell id="THCGzzuzk-K5U6UD1SbX-173" value="&lt;font style=&quot;font-size: 18px;&quot;&gt;&lt;b style=&quot;&quot;&gt;os-photons&lt;/b&gt;&lt;/font&gt;" style="rounded=0;whiteSpace=wrap;html=1;fillColor=#99FFFF;" parent="1" vertex="1">
          <mxGeometry x="-2495" y="4850" width="200" height="160" as="geometry" />
        </mxCell>
        <mxCell id="THCGzzuzk-K5U6UD1SbX-174" value="&lt;font style=&quot;font-size: 18px;&quot;&gt;&lt;b&gt;advance_photons&lt;/b&gt;&lt;/font&gt;" style="rhombus;whiteSpace=wrap;html=1;" parent="1" vertex="1">
          <mxGeometry x="-2170" y="4850" width="210" height="160" as="geometry" />
        </mxCell>
        <mxCell id="THCGzzuzk-K5U6UD1SbX-177" value="os-qed-coulomb --&amp;gt; create_pairs_betheheitler --&amp;gt;&amp;nbsp;advance_photons" style="whiteSpace=wrap;html=1;" parent="1" vertex="1">
          <mxGeometry x="-3050" y="3690" width="370" height="20" as="geometry" />
        </mxCell>
      </root>
    </mxGraphModel>
  </diagram>
</mxfile>
